<svg xmlns="http://www.w3.org/2000/svg" xml:space="preserve" id="Laag_1" x="0" y="0" style="enable-background:new 0 0 69 69" version="1.1" viewBox="0 0 69 69"><style>.st1{fill:#fff}</style><path id="Path_604" d="M50.3 65.5c-23.2 9.3-41 .2-48.5-27.1-5.5-20 2-25.1 22.7-34.4C48.7-6.9 62.8 5.7 67.7 28.2c3.8 17.4-.6 30.5-17.4 37.3z" style="fill:#ff0048"/><g id="Group_8134" transform="translate(16.372 24.728)"><g id="Group_8132"><path id="Path_605" d="M4.1 7.5V1.4C4.2.2 3.7-1 2.8-1.8 1.7-2.6.4-3-.9-2.9h-5V15c0 .5.3.8.9.8h2.7V11c.6.6 1.4.9 2.3.8 1.1 0 2.2-.4 3-1.1.7-.9 1.1-2 1.1-3.2zM.5 6.7c0 .6-.1 1.2-.3 1.7-.2.4-.7.6-1.1.6-.5 0-1-.2-1.4-.6V0h1.4C0 0 .5.5.5 1.5v5.2z" class="st1"/><path id="Path_606" d="M12.8-3.2c-1.2-.1-2.3.7-2.6 1.8v-.7c0-.5-.3-.8-.9-.8H6.5v13.7c0 .5.3.8.9.8h2.7V3.1c.1-1.3 1-2.5 2.3-2.7.2 0 .4-.2.5-.4v-3.1c0-.1 0-.1-.1-.1z" class="st1"/><path id="Path_607" d="M23.5 11.5h2.7V.5c.2-.6.8-1 1.4-.9.8 0 1.2.5 1.2 1.4v9.7c0 .5.3.7.8.7h2.8V.8c.1-1.1-.3-2.1-1-2.9-.5-.8-1.4-1.2-2.4-1.1-1.1-.1-2.2.5-2.7 1.5v-.4c0-.5-.3-.8-.9-.8h-3.8v2.3c0 .3.3.6.6.6h.4v10.8c.1.4.3.7.9.7z" class="st1"/><path id="Path_608" d="M20.2 11.5V9.2c0-.3-.3-.6-.6-.6H19V-2.2c0-.5-.3-.8-.9-.8h-2.7v13.7c0 .5.3.7.9.7h3.9z" class="st1"/><path id="Path_609" d="M40.2 8.7h-.4c-.8 0-1.3-.4-1.3-1.3V0h2.1v-2.1c0-.5-.3-.7-.8-.7h-1.4v-1.1c0-.5-.3-.8-.9-.8H35V6.9c0 1.6.3 2.8 1 3.5.7.7 1.7 1.1 3.2 1.1h1.9V9.4c0-.5-.3-.7-.9-.7z" class="st1"/><path id="Path_610" d="M18.1-4.9c-1.4.6-2.5 0-3-1.7-.3-1.2.1-1.5 1.4-2.1 1.5-.7 2.4.1 2.7 1.5.3 1 0 1.8-1.1 2.3z" class="st1"/></g><g id="Group_8133" transform="translate(18.824 38.406)"><path id="Path_611" d="M-1.6-22c-1.7-1.1-3.9-1.1-5.5 0-.7.6-1 1.5-1 2.4v4.5c-.1.9.3 1.8 1 2.4 1.7 1.1 3.9 1.1 5.5 0 .7-.6 1-1.5 1-2.4v-.6c0-.4-.2-.6-.7-.6h-1.4c-.4 0-.7.2-.7.6v.6c0 .7-.3 1.1-1 1.1s-1-.4-1-1.1v-4.6c0-.7.3-1.1 1-1.1s1 .4 1 1.1v.6c0 .4.2.6.7.6h1.4c.4 0 .7-.2.7-.6v-.6c.1-.8-.3-1.7-1-2.3z" class="st1"/><path id="Path_612" d="M7.5-22c-1.7-1.1-3.9-1.1-5.5 0-.7.6-1 1.5-1 2.4v4.5c-.1.9.3 1.8 1 2.4 1.7 1.1 3.9 1.1 5.5 0 .7-.6 1-1.5 1-2.4v-4.5c0-.9-.4-1.8-1-2.4zm-1.8 6.9c0 .7-.3 1.1-1 1.1s-1-.4-1-1.1v-4.6c0-.7.3-1.1 1-1.1s1 .4 1 1.1v4.6z" class="st1"/><path id="Path_613" d="M-10.3-12c-1.1.5-2 0-2.4-1.3-.3-1 .1-1.2 1.1-1.7 1.2-.5 1.9.1 2.1 1.2.4.7 0 1.5-.8 1.8.1-.1.1-.1 0 0z" class="st1"/><path id="Path_614" d="M22.6-14.3h-.4v-5.6c0-.8-.2-1.6-.7-2.2-.5-.5-1.2-.8-2-.8-1 0-1.9.5-2.4 1.3-.4-.8-1.3-1.3-2.3-1.2-.8-.1-1.6.3-2 1.1v-.3c0-.4-.2-.6-.7-.6H9.4v1.8c0 .2.2.4.4.4h.3v7.8c0 .4.2.5.7.5h2v-8c.1-.4.6-.7 1-.7.6 0 .9.4.9 1.1v7.1c0 .4.2.5.6.5h2.1v-8c.2-.4.6-.7 1-.7.6 0 .9.4.9 1.1v7.1c0 .4.2.5.6.5h2.9v-1.7c.3-.3.1-.5-.2-.5z" class="st1"/></g></g></svg>